<?xml version="1.0" encoding="utf-8"?>
<svg xmlns="http://www.w3.org/2000/svg" xmlns:xlink="http://www.w3.org/1999/xlink" width="1600" height="1000" viewBox="0 0 6400 4000">
<defs>
  <clipPath id="clip320">
    <rect x="0" y="0" width="6400" height="4000"/>
  </clipPath>
</defs>
<path clip-path="url(#clip320)" d="M0 4000 L6400 4000 L6400 0 L0 0  Z" fill="#ffffff" fill-rule="evenodd" fill-opacity="1"/>
<defs>
  <clipPath id="clip321">
    <rect x="1280" y="0" width="4481" height="4000"/>
  </clipPath>
</defs>
<path clip-path="url(#clip320)" d="M375.197 3816.01 L6352.76 3816.01 L6352.76 47.2441 L375.197 47.2441  Z" fill="#ffffff" fill-rule="evenodd" fill-opacity="1"/>
<defs>
  <clipPath id="clip322">
    <rect x="375" y="47" width="5979" height="3770"/>
  </clipPath>
</defs>
<polyline clip-path="url(#clip322)" style="stroke:#000000; stroke-linecap:round; stroke-linejoin:round; stroke-width:6; stroke-opacity:0.1; fill:none" points="375.197,3816.01 375.197,47.2441 "/>
<polyline clip-path="url(#clip322)" style="stroke:#000000; stroke-linecap:round; stroke-linejoin:round; stroke-width:6; stroke-opacity:0.1; fill:none" points="1570.71,3816.01 1570.71,47.2441 "/>
<polyline clip-path="url(#clip322)" style="stroke:#000000; stroke-linecap:round; stroke-linejoin:round; stroke-width:6; stroke-opacity:0.1; fill:none" points="2766.22,3816.01 2766.22,47.2441 "/>
<polyline clip-path="url(#clip322)" style="stroke:#000000; stroke-linecap:round; stroke-linejoin:round; stroke-width:6; stroke-opacity:0.1; fill:none" points="3961.73,3816.01 3961.73,47.2441 "/>
<polyline clip-path="url(#clip322)" style="stroke:#000000; stroke-linecap:round; stroke-linejoin:round; stroke-width:6; stroke-opacity:0.1; fill:none" points="5157.24,3816.01 5157.24,47.2441 "/>
<polyline clip-path="url(#clip322)" style="stroke:#000000; stroke-linecap:round; stroke-linejoin:round; stroke-width:6; stroke-opacity:0.1; fill:none" points="6352.76,3816.01 6352.76,47.2441 "/>
<polyline clip-path="url(#clip322)" style="stroke:#000000; stroke-linecap:round; stroke-linejoin:round; stroke-width:6; stroke-opacity:0.1; fill:none" points="375.197,3816.01 375.197,47.2441 "/>
<polyline clip-path="url(#clip322)" style="stroke:#000000; stroke-linecap:round; stroke-linejoin:round; stroke-width:6; stroke-opacity:0.1; fill:none" points="1570.71,3816.01 1570.71,47.2441 "/>
<polyline clip-path="url(#clip322)" style="stroke:#000000; stroke-linecap:round; stroke-linejoin:round; stroke-width:6; stroke-opacity:0.1; fill:none" points="2766.22,3816.01 2766.22,47.2441 "/>
<polyline clip-path="url(#clip322)" style="stroke:#000000; stroke-linecap:round; stroke-linejoin:round; stroke-width:6; stroke-opacity:0.1; fill:none" points="3961.73,3816.01 3961.73,47.2441 "/>
<polyline clip-path="url(#clip322)" style="stroke:#000000; stroke-linecap:round; stroke-linejoin:round; stroke-width:6; stroke-opacity:0.1; fill:none" points="5157.24,3816.01 5157.24,47.2441 "/>
<polyline clip-path="url(#clip322)" style="stroke:#000000; stroke-linecap:round; stroke-linejoin:round; stroke-width:6; stroke-opacity:0.1; fill:none" points="6352.76,3816.01 6352.76,47.2441 "/>
<polyline clip-path="url(#clip322)" style="stroke:#000000; stroke-linecap:round; stroke-linejoin:round; stroke-width:6; stroke-opacity:0.1; fill:none" points="375.197,3709.34 6352.76,3709.34 "/>
<polyline clip-path="url(#clip322)" style="stroke:#000000; stroke-linecap:round; stroke-linejoin:round; stroke-width:6; stroke-opacity:0.1; fill:none" points="375.197,2820.46 6352.76,2820.46 "/>
<polyline clip-path="url(#clip322)" style="stroke:#000000; stroke-linecap:round; stroke-linejoin:round; stroke-width:6; stroke-opacity:0.1; fill:none" points="375.197,1931.58 6352.76,1931.58 "/>
<polyline clip-path="url(#clip322)" style="stroke:#000000; stroke-linecap:round; stroke-linejoin:round; stroke-width:6; stroke-opacity:0.1; fill:none" points="375.197,1042.69 6352.76,1042.69 "/>
<polyline clip-path="url(#clip322)" style="stroke:#000000; stroke-linecap:round; stroke-linejoin:round; stroke-width:6; stroke-opacity:0.1; fill:none" points="375.197,153.811 6352.76,153.811 "/>
<polyline clip-path="url(#clip322)" style="stroke:#000000; stroke-linecap:round; stroke-linejoin:round; stroke-width:6; stroke-opacity:0.1; fill:none" points="375.197,3709.34 6352.76,3709.34 "/>
<polyline clip-path="url(#clip322)" style="stroke:#000000; stroke-linecap:round; stroke-linejoin:round; stroke-width:6; stroke-opacity:0.1; fill:none" points="375.197,2820.46 6352.76,2820.46 "/>
<polyline clip-path="url(#clip322)" style="stroke:#000000; stroke-linecap:round; stroke-linejoin:round; stroke-width:6; stroke-opacity:0.1; fill:none" points="375.197,1931.58 6352.76,1931.58 "/>
<polyline clip-path="url(#clip322)" style="stroke:#000000; stroke-linecap:round; stroke-linejoin:round; stroke-width:6; stroke-opacity:0.1; fill:none" points="375.197,1042.69 6352.76,1042.69 "/>
<polyline clip-path="url(#clip322)" style="stroke:#000000; stroke-linecap:round; stroke-linejoin:round; stroke-width:6; stroke-opacity:0.1; fill:none" points="375.197,153.811 6352.76,153.811 "/>
<polyline clip-path="url(#clip320)" style="stroke:#000000; stroke-linecap:round; stroke-linejoin:round; stroke-width:4; stroke-opacity:1; fill:none" points="375.197,3816.01 6352.76,3816.01 "/>
<polyline clip-path="url(#clip320)" style="stroke:#000000; stroke-linecap:round; stroke-linejoin:round; stroke-width:4; stroke-opacity:1; fill:none" points="375.197,47.2441 6352.76,47.2441 "/>
<polyline clip-path="url(#clip320)" style="stroke:#000000; stroke-linecap:round; stroke-linejoin:round; stroke-width:4; stroke-opacity:1; fill:none" points="375.197,3816.01 375.197,3797.11 "/>
<polyline clip-path="url(#clip320)" style="stroke:#000000; stroke-linecap:round; stroke-linejoin:round; stroke-width:4; stroke-opacity:1; fill:none" points="1570.71,3816.01 1570.71,3797.11 "/>
<polyline clip-path="url(#clip320)" style="stroke:#000000; stroke-linecap:round; stroke-linejoin:round; stroke-width:4; stroke-opacity:1; fill:none" points="2766.22,3816.01 2766.22,3797.11 "/>
<polyline clip-path="url(#clip320)" style="stroke:#000000; stroke-linecap:round; stroke-linejoin:round; stroke-width:4; stroke-opacity:1; fill:none" points="3961.73,3816.01 3961.73,3797.11 "/>
<polyline clip-path="url(#clip320)" style="stroke:#000000; stroke-linecap:round; stroke-linejoin:round; stroke-width:4; stroke-opacity:1; fill:none" points="5157.24,3816.01 5157.24,3797.11 "/>
<polyline clip-path="url(#clip320)" style="stroke:#000000; stroke-linecap:round; stroke-linejoin:round; stroke-width:4; stroke-opacity:1; fill:none" points="6352.76,3816.01 6352.76,3797.11 "/>
<polyline clip-path="url(#clip320)" style="stroke:#000000; stroke-linecap:round; stroke-linejoin:round; stroke-width:4; stroke-opacity:1; fill:none" points="375.197,47.2441 375.197,66.1417 "/>
<polyline clip-path="url(#clip320)" style="stroke:#000000; stroke-linecap:round; stroke-linejoin:round; stroke-width:4; stroke-opacity:1; fill:none" points="1570.71,47.2441 1570.71,66.1417 "/>
<polyline clip-path="url(#clip320)" style="stroke:#000000; stroke-linecap:round; stroke-linejoin:round; stroke-width:4; stroke-opacity:1; fill:none" points="2766.22,47.2441 2766.22,66.1417 "/>
<polyline clip-path="url(#clip320)" style="stroke:#000000; stroke-linecap:round; stroke-linejoin:round; stroke-width:4; stroke-opacity:1; fill:none" points="3961.73,47.2441 3961.73,66.1417 "/>
<polyline clip-path="url(#clip320)" style="stroke:#000000; stroke-linecap:round; stroke-linejoin:round; stroke-width:4; stroke-opacity:1; fill:none" points="5157.24,47.2441 5157.24,66.1417 "/>
<polyline clip-path="url(#clip320)" style="stroke:#000000; stroke-linecap:round; stroke-linejoin:round; stroke-width:4; stroke-opacity:1; fill:none" points="6352.76,47.2441 6352.76,66.1417 "/>
<path clip-path="url(#clip320)" d="M375.197 3896.5 Q366.169 3896.5 361.597 3905.42 Q357.083 3914.27 357.083 3932.09 Q357.083 3949.86 361.597 3958.77 Q366.169 3967.63 375.197 3967.63 Q384.282 3967.63 388.796 3958.77 Q393.368 3949.86 393.368 3932.09 Q393.368 3914.27 388.796 3905.42 Q384.282 3896.5 375.197 3896.5 M375.197 3887.25 Q389.722 3887.25 397.361 3898.76 Q405.058 3910.22 405.058 3932.09 Q405.058 3953.91 397.361 3965.43 Q389.722 3976.89 375.197 3976.89 Q360.671 3976.89 352.975 3965.43 Q345.336 3953.91 345.336 3932.09 Q345.336 3910.22 352.975 3898.76 Q360.671 3887.25 375.197 3887.25 Z" fill="#000000" fill-rule="nonzero" fill-opacity="1" /><path clip-path="url(#clip320)" d="M1517.64 3965.37 L1558.44 3965.37 L1558.44 3975.21 L1503.58 3975.21 L1503.58 3965.37 Q1510.23 3958.48 1521.69 3946.91 Q1533.21 3935.28 1536.16 3931.92 Q1541.77 3925.61 1543.97 3921.27 Q1546.23 3916.87 1546.23 3912.65 Q1546.23 3905.76 1541.37 3901.42 Q1536.57 3897.08 1528.81 3897.08 Q1523.31 3897.08 1517.18 3898.99 Q1511.1 3900.9 1504.16 3904.78 L1504.16 3892.97 Q1511.22 3890.14 1517.35 3888.69 Q1523.49 3887.25 1528.58 3887.25 Q1542.01 3887.25 1549.99 3893.96 Q1557.98 3900.67 1557.98 3911.9 Q1557.98 3917.22 1555.95 3922.03 Q1553.98 3926.77 1548.72 3933.25 Q1547.27 3934.93 1539.52 3942.97 Q1531.76 3950.96 1517.64 3965.37 Z" fill="#000000" fill-rule="nonzero" fill-opacity="1" /><path clip-path="url(#clip320)" d="M1607.98 3896.5 Q1598.95 3896.5 1594.38 3905.42 Q1589.86 3914.27 1589.86 3932.09 Q1589.86 3949.86 1594.38 3958.77 Q1598.95 3967.63 1607.98 3967.63 Q1617.06 3967.63 1621.58 3958.77 Q1626.15 3949.86 1626.15 3932.09 Q1626.15 3914.27 1621.58 3905.42 Q1617.06 3896.5 1607.98 3896.5 M1607.98 3887.25 Q1622.5 3887.25 1630.14 3898.76 Q1637.84 3910.22 1637.84 3932.09 Q1637.84 3953.91 1630.14 3965.43 Q1622.5 3976.89 1607.98 3976.89 Q1593.45 3976.89 1585.75 3965.43 Q1578.12 3953.91 1578.12 3932.09 Q1578.12 3910.22 1585.75 3898.76 Q1593.45 3887.25 1607.98 3887.25 Z" fill="#000000" fill-rule="nonzero" fill-opacity="1" /><path clip-path="url(#clip320)" d="M2736.65 3898.99 L2707.14 3945.12 L2736.65 3945.12 L2736.65 3898.99 M2733.58 3888.81 L2748.28 3888.81 L2748.28 3945.12 L2760.61 3945.12 L2760.61 3954.84 L2748.28 3954.84 L2748.28 3975.21 L2736.65 3975.21 L2736.65 3954.84 L2697.64 3954.84 L2697.64 3943.55 L2733.58 3888.81 Z" fill="#000000" fill-rule="nonzero" fill-opacity="1" /><path clip-path="url(#clip320)" d="M2804.94 3896.5 Q2795.91 3896.5 2791.34 3905.42 Q2786.82 3914.27 2786.82 3932.09 Q2786.82 3949.86 2791.34 3958.77 Q2795.91 3967.63 2804.94 3967.63 Q2814.02 3967.63 2818.53 3958.77 Q2823.11 3949.86 2823.11 3932.09 Q2823.11 3914.27 2818.53 3905.42 Q2814.02 3896.5 2804.94 3896.5 M2804.94 3887.25 Q2819.46 3887.25 2827.1 3898.76 Q2834.8 3910.22 2834.8 3932.09 Q2834.8 3953.91 2827.1 3965.43 Q2819.46 3976.89 2804.94 3976.89 Q2790.41 3976.89 2782.71 3965.43 Q2775.07 3953.91 2775.07 3932.09 Q2775.07 3910.22 2782.71 3898.76 Q2790.41 3887.25 2804.94 3887.25 Z" fill="#000000" fill-rule="nonzero" fill-opacity="1" /><path clip-path="url(#clip320)" d="M3925.25 3927.35 Q3917.37 3927.35 3912.75 3932.73 Q3908.17 3938.11 3908.17 3947.49 Q3908.17 3956.81 3912.75 3962.24 Q3917.37 3967.63 3925.25 3967.63 Q3933.12 3967.63 3937.69 3962.24 Q3942.32 3956.81 3942.32 3947.49 Q3942.32 3938.11 3937.69 3932.73 Q3933.12 3927.35 3925.25 3927.35 M3948.45 3890.72 L3948.45 3901.37 Q3944.05 3899.28 3939.54 3898.18 Q3935.08 3897.08 3930.68 3897.08 Q3919.11 3897.08 3912.98 3904.9 Q3906.9 3912.71 3906.03 3928.51 Q3909.45 3923.47 3914.6 3920.81 Q3919.75 3918.09 3925.94 3918.09 Q3938.96 3918.09 3946.48 3926.02 Q3954.06 3933.89 3954.06 3947.49 Q3954.06 3960.8 3946.19 3968.84 Q3938.32 3976.89 3925.25 3976.89 Q3910.26 3976.89 3902.33 3965.43 Q3894.4 3953.91 3894.4 3932.09 Q3894.4 3911.61 3904.12 3899.46 Q3913.84 3887.25 3930.22 3887.25 Q3934.62 3887.25 3939.08 3888.11 Q3943.59 3888.98 3948.45 3890.72 Z" fill="#000000" fill-rule="nonzero" fill-opacity="1" /><path clip-path="url(#clip320)" d="M3999.2 3896.5 Q3990.18 3896.5 3985.6 3905.42 Q3981.09 3914.27 3981.09 3932.09 Q3981.09 3949.86 3985.6 3958.77 Q3990.18 3967.63 3999.2 3967.63 Q4008.29 3967.63 4012.8 3958.77 Q4017.37 3949.86 4017.37 3932.09 Q4017.37 3914.27 4012.8 3905.42 Q4008.29 3896.5 3999.2 3896.5 M3999.2 3887.25 Q4013.73 3887.25 4021.37 3898.76 Q4029.06 3910.22 4029.06 3932.09 Q4029.06 3953.91 4021.37 3965.43 Q4013.73 3976.89 3999.2 3976.89 Q3984.68 3976.89 3976.98 3965.43 Q3969.34 3953.91 3969.34 3932.09 Q3969.34 3910.22 3976.98 3898.76 Q3984.68 3887.25 3999.2 3887.25 Z" fill="#000000" fill-rule="nonzero" fill-opacity="1" /><path clip-path="url(#clip320)" d="M5119.43 3934.18 Q5111.09 3934.18 5106.29 3938.63 Q5101.54 3943.09 5101.54 3950.9 Q5101.54 3958.71 5106.29 3963.17 Q5111.09 3967.63 5119.43 3967.63 Q5127.76 3967.63 5132.56 3963.17 Q5137.37 3958.66 5137.37 3950.9 Q5137.37 3943.09 5132.56 3938.63 Q5127.82 3934.18 5119.43 3934.18 M5107.74 3929.2 Q5100.21 3927.35 5095.99 3922.2 Q5091.82 3917.05 5091.82 3909.64 Q5091.82 3899.28 5099.17 3893.26 Q5106.58 3887.25 5119.43 3887.25 Q5132.33 3887.25 5139.68 3893.26 Q5147.03 3899.28 5147.03 3909.64 Q5147.03 3917.05 5142.81 3922.2 Q5138.64 3927.35 5131.17 3929.2 Q5139.62 3931.17 5144.31 3936.9 Q5149.06 3942.63 5149.06 3950.9 Q5149.06 3963.46 5141.36 3970.17 Q5133.72 3976.89 5119.43 3976.89 Q5105.13 3976.89 5097.44 3970.17 Q5089.8 3963.46 5089.8 3950.9 Q5089.8 3942.63 5094.54 3936.9 Q5099.29 3931.17 5107.74 3929.2 M5103.45 3910.74 Q5103.45 3917.45 5107.62 3921.22 Q5111.85 3924.98 5119.43 3924.98 Q5126.95 3924.98 5131.17 3921.22 Q5135.46 3917.45 5135.46 3910.74 Q5135.46 3904.03 5131.17 3900.27 Q5126.95 3896.5 5119.43 3896.5 Q5111.85 3896.5 5107.62 3900.27 Q5103.45 3904.03 5103.45 3910.74 Z" fill="#000000" fill-rule="nonzero" fill-opacity="1" /><path clip-path="url(#clip320)" d="M5194.83 3896.5 Q5185.8 3896.5 5181.23 3905.42 Q5176.72 3914.27 5176.72 3932.09 Q5176.72 3949.86 5181.23 3958.77 Q5185.8 3967.63 5194.83 3967.63 Q5203.92 3967.63 5208.43 3958.77 Q5213 3949.86 5213 3932.09 Q5213 3914.27 5208.43 3905.42 Q5203.92 3896.5 5194.83 3896.5 M5194.83 3887.25 Q5209.36 3887.25 5216.99 3898.76 Q5224.69 3910.22 5224.69 3932.09 Q5224.69 3953.91 5216.99 3965.43 Q5209.36 3976.89 5194.83 3976.89 Q5180.31 3976.89 5172.61 3965.43 Q5164.97 3953.91 5164.97 3932.09 Q5164.97 3910.22 5172.61 3898.76 Q5180.31 3887.25 5194.83 3887.25 Z" fill="#000000" fill-rule="nonzero" fill-opacity="1" /><path clip-path="url(#clip320)" d="M6251.77 3965.37 L6270.87 3965.37 L6270.87 3899.46 L6250.09 3903.62 L6250.09 3892.97 L6270.75 3888.81 L6282.44 3888.81 L6282.44 3965.37 L6301.54 3965.37 L6301.54 3975.21 L6251.77 3975.21 L6251.77 3965.37 Z" fill="#000000" fill-rule="nonzero" fill-opacity="1" /><path clip-path="url(#clip320)" d="M6350.15 3896.5 Q6341.12 3896.5 6336.55 3905.42 Q6332.04 3914.27 6332.04 3932.09 Q6332.04 3949.86 6336.55 3958.77 Q6341.12 3967.63 6350.15 3967.63 Q6359.24 3967.63 6363.75 3958.77 Q6368.32 3949.86 6368.32 3932.09 Q6368.32 3914.27 6363.75 3905.42 Q6359.24 3896.5 6350.15 3896.5 M6350.15 3887.25 Q6364.68 3887.25 6372.32 3898.76 Q6380.01 3910.22 6380.01 3932.09 Q6380.01 3953.91 6372.32 3965.43 Q6364.68 3976.89 6350.15 3976.89 Q6335.63 3976.89 6327.93 3965.43 Q6320.29 3953.91 6320.29 3932.09 Q6320.29 3910.22 6327.93 3898.76 Q6335.63 3887.25 6350.15 3887.25 Z" fill="#000000" fill-rule="nonzero" fill-opacity="1" /><path clip-path="url(#clip320)" d="M6425.56 3896.5 Q6416.53 3896.5 6411.96 3905.42 Q6407.44 3914.27 6407.44 3932.09 Q6407.44 3949.86 6411.96 3958.77 Q6416.53 3967.63 6425.56 3967.63 Q6434.64 3967.63 6439.16 3958.77 Q6443.73 3949.86 6443.73 3932.09 Q6443.73 3914.27 6439.16 3905.42 Q6434.64 3896.5 6425.56 3896.5 M6425.56 3887.25 Q6440.08 3887.25 6447.72 3898.76 Q6455.42 3910.22 6455.42 3932.09 Q6455.42 3953.91 6447.72 3965.43 Q6440.08 3976.89 6425.56 3976.89 Q6411.03 3976.89 6403.33 3965.43 Q6395.7 3953.91 6395.7 3932.09 Q6395.7 3910.22 6403.33 3898.76 Q6411.03 3887.25 6425.56 3887.25 Z" fill="#000000" fill-rule="nonzero" fill-opacity="1" /><polyline clip-path="url(#clip320)" style="stroke:#000000; stroke-linecap:round; stroke-linejoin:round; stroke-width:4; stroke-opacity:1; fill:none" points="375.197,3816.01 375.197,47.2441 "/>
<polyline clip-path="url(#clip320)" style="stroke:#000000; stroke-linecap:round; stroke-linejoin:round; stroke-width:4; stroke-opacity:1; fill:none" points="6352.76,3816.01 6352.76,47.2441 "/>
<polyline clip-path="url(#clip320)" style="stroke:#000000; stroke-linecap:round; stroke-linejoin:round; stroke-width:4; stroke-opacity:1; fill:none" points="375.197,3709.34 394.094,3709.34 "/>
<polyline clip-path="url(#clip320)" style="stroke:#000000; stroke-linecap:round; stroke-linejoin:round; stroke-width:4; stroke-opacity:1; fill:none" points="375.197,2820.46 394.094,2820.46 "/>
<polyline clip-path="url(#clip320)" style="stroke:#000000; stroke-linecap:round; stroke-linejoin:round; stroke-width:4; stroke-opacity:1; fill:none" points="375.197,1931.58 394.094,1931.58 "/>
<polyline clip-path="url(#clip320)" style="stroke:#000000; stroke-linecap:round; stroke-linejoin:round; stroke-width:4; stroke-opacity:1; fill:none" points="375.197,1042.69 394.094,1042.69 "/>
<polyline clip-path="url(#clip320)" style="stroke:#000000; stroke-linecap:round; stroke-linejoin:round; stroke-width:4; stroke-opacity:1; fill:none" points="375.197,153.811 394.094,153.811 "/>
<polyline clip-path="url(#clip320)" style="stroke:#000000; stroke-linecap:round; stroke-linejoin:round; stroke-width:4; stroke-opacity:1; fill:none" points="6352.76,3709.34 6333.86,3709.34 "/>
<polyline clip-path="url(#clip320)" style="stroke:#000000; stroke-linecap:round; stroke-linejoin:round; stroke-width:4; stroke-opacity:1; fill:none" points="6352.76,2820.46 6333.86,2820.46 "/>
<polyline clip-path="url(#clip320)" style="stroke:#000000; stroke-linecap:round; stroke-linejoin:round; stroke-width:4; stroke-opacity:1; fill:none" points="6352.76,1931.58 6333.86,1931.58 "/>
<polyline clip-path="url(#clip320)" style="stroke:#000000; stroke-linecap:round; stroke-linejoin:round; stroke-width:4; stroke-opacity:1; fill:none" points="6352.76,1042.69 6333.86,1042.69 "/>
<polyline clip-path="url(#clip320)" style="stroke:#000000; stroke-linecap:round; stroke-linejoin:round; stroke-width:4; stroke-opacity:1; fill:none" points="6352.76,153.811 6333.86,153.811 "/>
<path clip-path="url(#clip320)" d="M60.8531 3673.84 Q51.8253 3673.84 47.2536 3682.75 Q42.7397 3691.61 42.7397 3709.43 Q42.7397 3727.2 47.2536 3736.11 Q51.8253 3744.96 60.8531 3744.96 Q69.9387 3744.96 74.4525 3736.11 Q79.0243 3727.2 79.0243 3709.43 Q79.0243 3691.61 74.4525 3682.75 Q69.9387 3673.84 60.8531 3673.84 M60.8531 3664.58 Q75.3785 3664.58 83.0173 3676.1 Q90.714 3687.56 90.714 3709.43 Q90.714 3731.25 83.0173 3742.76 Q75.3785 3754.22 60.8531 3754.22 Q46.3277 3754.22 38.631 3742.76 Q30.9921 3731.25 30.9921 3709.43 Q30.9921 3687.56 38.631 3676.1 Q46.3277 3664.58 60.8531 3664.58 Z" fill="#000000" fill-rule="nonzero" fill-opacity="1" /><path clip-path="url(#clip320)" d="M111.258 3737.85 L123.468 3737.85 L123.468 3752.54 L111.258 3752.54 L111.258 3737.85 Z" fill="#000000" fill-rule="nonzero" fill-opacity="1" /><path clip-path="url(#clip320)" d="M173.931 3673.84 Q164.903 3673.84 160.332 3682.75 Q155.818 3691.61 155.818 3709.43 Q155.818 3727.2 160.332 3736.11 Q164.903 3744.96 173.931 3744.96 Q183.017 3744.96 187.531 3736.11 Q192.102 3727.2 192.102 3709.43 Q192.102 3691.61 187.531 3682.75 Q183.017 3673.84 173.931 3673.84 M173.931 3664.58 Q188.457 3664.58 196.095 3676.1 Q203.792 3687.56 203.792 3709.43 Q203.792 3731.25 196.095 3742.76 Q188.457 3754.22 173.931 3754.22 Q159.406 3754.22 151.709 3742.76 Q144.07 3731.25 144.07 3709.43 Q144.07 3687.56 151.709 3676.1 Q159.406 3664.58 173.931 3664.58 Z" fill="#000000" fill-rule="nonzero" fill-opacity="1" /><path clip-path="url(#clip320)" d="M249.336 3673.84 Q240.308 3673.84 235.736 3682.75 Q231.223 3691.61 231.223 3709.43 Q231.223 3727.2 235.736 3736.11 Q240.308 3744.96 249.336 3744.96 Q258.421 3744.96 262.935 3736.11 Q267.507 3727.2 267.507 3709.43 Q267.507 3691.61 262.935 3682.75 Q258.421 3673.84 249.336 3673.84 M249.336 3664.58 Q263.861 3664.58 271.5 3676.1 Q279.197 3687.56 279.197 3709.43 Q279.197 3731.25 271.5 3742.76 Q263.861 3754.22 249.336 3754.22 Q234.81 3754.22 227.114 3742.76 Q219.475 3731.25 219.475 3709.43 Q219.475 3687.56 227.114 3676.1 Q234.81 3664.58 249.336 3664.58 Z" fill="#000000" fill-rule="nonzero" fill-opacity="1" /><path clip-path="url(#clip320)" d="M63.3415 2784.96 Q54.3138 2784.96 49.742 2793.87 Q45.2282 2802.72 45.2282 2820.55 Q45.2282 2838.31 49.742 2847.23 Q54.3138 2856.08 63.3415 2856.08 Q72.4271 2856.08 76.941 2847.23 Q81.5127 2838.31 81.5127 2820.55 Q81.5127 2802.72 76.941 2793.87 Q72.4271 2784.96 63.3415 2784.96 M63.3415 2775.7 Q77.8669 2775.7 85.5057 2787.21 Q93.2024 2798.67 93.2024 2820.55 Q93.2024 2842.37 85.5057 2853.88 Q77.8669 2865.34 63.3415 2865.34 Q48.8161 2865.34 41.1194 2853.88 Q33.4805 2842.37 33.4805 2820.55 Q33.4805 2798.67 41.1194 2787.21 Q48.8161 2775.7 63.3415 2775.7 Z" fill="#000000" fill-rule="nonzero" fill-opacity="1" /><path clip-path="url(#clip320)" d="M113.746 2848.96 L125.957 2848.96 L125.957 2863.66 L113.746 2863.66 L113.746 2848.96 Z" fill="#000000" fill-rule="nonzero" fill-opacity="1" /><path clip-path="url(#clip320)" d="M161.489 2853.82 L202.288 2853.82 L202.288 2863.66 L147.427 2863.66 L147.427 2853.82 Q154.082 2846.94 165.54 2835.36 Q177.056 2823.73 180.008 2820.37 Q185.621 2814.07 187.82 2809.73 Q190.077 2805.33 190.077 2801.1 Q190.077 2794.22 185.216 2789.88 Q180.413 2785.54 172.658 2785.54 Q167.16 2785.54 161.026 2787.45 Q154.95 2789.36 148.005 2793.23 L148.005 2781.43 Q155.066 2778.59 161.2 2777.15 Q167.334 2775.7 172.427 2775.7 Q185.852 2775.7 193.838 2782.41 Q201.825 2789.12 201.825 2800.35 Q201.825 2805.68 199.799 2810.48 Q197.832 2815.22 192.565 2821.71 Q191.119 2823.38 183.364 2831.43 Q175.609 2839.41 161.489 2853.82 Z" fill="#000000" fill-rule="nonzero" fill-opacity="1" /><path clip-path="url(#clip320)" d="M226.94 2777.26 L272.831 2777.26 L272.831 2787.1 L237.646 2787.1 L237.646 2808.28 Q240.192 2807.41 242.739 2807.01 Q245.285 2806.54 247.831 2806.54 Q262.299 2806.54 270.748 2814.47 Q279.197 2822.4 279.197 2835.94 Q279.197 2849.89 270.516 2857.64 Q261.836 2865.34 246.037 2865.34 Q240.597 2865.34 234.926 2864.41 Q229.313 2863.49 223.294 2861.64 L223.294 2849.89 Q228.503 2852.72 234.058 2854.11 Q239.614 2855.5 245.806 2855.5 Q255.817 2855.5 261.662 2850.24 Q267.507 2844.97 267.507 2835.94 Q267.507 2826.91 261.662 2821.65 Q255.817 2816.38 245.806 2816.38 Q241.118 2816.38 236.431 2817.42 Q231.801 2818.46 226.94 2820.66 L226.94 2777.26 Z" fill="#000000" fill-rule="nonzero" fill-opacity="1" /><path clip-path="url(#clip320)" d="M60.8531 1896.07 Q51.8253 1896.07 47.2536 1904.99 Q42.7397 1913.84 42.7397 1931.66 Q42.7397 1949.43 47.2536 1958.34 Q51.8253 1967.2 60.8531 1967.2 Q69.9387 1967.2 74.4525 1958.34 Q79.0243 1949.43 79.0243 1931.66 Q79.0243 1913.84 74.4525 1904.99 Q69.9387 1896.07 60.8531 1896.07 M60.8531 1886.82 Q75.3785 1886.82 83.0173 1898.33 Q90.714 1909.79 90.714 1931.66 Q90.714 1953.48 83.0173 1965 Q75.3785 1976.46 60.8531 1976.46 Q46.3277 1976.46 38.631 1965 Q30.9921 1953.48 30.9921 1931.66 Q30.9921 1909.79 38.631 1898.33 Q46.3277 1886.82 60.8531 1886.82 Z" fill="#000000" fill-rule="nonzero" fill-opacity="1" /><path clip-path="url(#clip320)" d="M111.258 1960.08 L123.468 1960.08 L123.468 1974.78 L111.258 1974.78 L111.258 1960.08 Z" fill="#000000" fill-rule="nonzero" fill-opacity="1" /><path clip-path="url(#clip320)" d="M149.047 1888.38 L194.938 1888.38 L194.938 1898.22 L159.753 1898.22 L159.753 1919.4 Q162.299 1918.53 164.846 1918.12 Q167.392 1917.66 169.938 1917.66 Q184.406 1917.66 192.855 1925.59 Q201.304 1933.52 201.304 1947.06 Q201.304 1961 192.623 1968.76 Q183.943 1976.46 168.144 1976.46 Q162.704 1976.46 157.033 1975.53 Q151.42 1974.6 145.401 1972.75 L145.401 1961 Q150.61 1963.84 156.165 1965.23 Q161.721 1966.62 167.913 1966.62 Q177.924 1966.62 183.769 1961.35 Q189.614 1956.09 189.614 1947.06 Q189.614 1938.03 183.769 1932.76 Q177.924 1927.5 167.913 1927.5 Q163.225 1927.5 158.538 1928.54 Q153.908 1929.58 149.047 1931.78 L149.047 1888.38 Z" fill="#000000" fill-rule="nonzero" fill-opacity="1" /><path clip-path="url(#clip320)" d="M249.336 1896.07 Q240.308 1896.07 235.736 1904.99 Q231.223 1913.84 231.223 1931.66 Q231.223 1949.43 235.736 1958.34 Q240.308 1967.2 249.336 1967.2 Q258.421 1967.2 262.935 1958.34 Q267.507 1949.43 267.507 1931.66 Q267.507 1913.84 262.935 1904.99 Q258.421 1896.07 249.336 1896.07 M249.336 1886.82 Q263.861 1886.82 271.5 1898.33 Q279.197 1909.79 279.197 1931.66 Q279.197 1953.48 271.5 1965 Q263.861 1976.46 249.336 1976.46 Q234.81 1976.46 227.114 1965 Q219.475 1953.48 219.475 1931.66 Q219.475 1909.79 227.114 1898.33 Q234.81 1886.82 249.336 1886.82 Z" fill="#000000" fill-rule="nonzero" fill-opacity="1" /><path clip-path="url(#clip320)" d="M63.3415 1007.19 Q54.3138 1007.19 49.742 1016.1 Q45.2282 1024.96 45.2282 1042.78 Q45.2282 1060.55 49.742 1069.46 Q54.3138 1078.31 63.3415 1078.31 Q72.4271 1078.31 76.941 1069.46 Q81.5127 1060.55 81.5127 1042.78 Q81.5127 1024.96 76.941 1016.1 Q72.4271 1007.19 63.3415 1007.19 M63.3415 997.932 Q77.8669 997.932 85.5057 1009.45 Q93.2024 1020.91 93.2024 1042.78 Q93.2024 1064.6 85.5057 1076.11 Q77.8669 1087.57 63.3415 1087.57 Q48.8161 1087.57 41.1194 1076.11 Q33.4805 1064.6 33.4805 1042.78 Q33.4805 1020.91 41.1194 1009.45 Q48.8161 997.932 63.3415 997.932 Z" fill="#000000" fill-rule="nonzero" fill-opacity="1" /><path clip-path="url(#clip320)" d="M113.746 1071.2 L125.957 1071.2 L125.957 1085.89 L113.746 1085.89 L113.746 1071.2 Z" fill="#000000" fill-rule="nonzero" fill-opacity="1" /><path clip-path="url(#clip320)" d="M148.468 999.494 L204.024 999.494 L204.024 1004.47 L172.658 1085.89 L160.447 1085.89 L189.961 1009.33 L148.468 1009.33 L148.468 999.494 Z" fill="#000000" fill-rule="nonzero" fill-opacity="1" /><path clip-path="url(#clip320)" d="M226.94 999.494 L272.831 999.494 L272.831 1009.33 L237.646 1009.33 L237.646 1030.51 Q240.192 1029.64 242.739 1029.24 Q245.285 1028.78 247.831 1028.78 Q262.299 1028.78 270.748 1036.7 Q279.197 1044.63 279.197 1058.17 Q279.197 1072.12 270.516 1079.88 Q261.836 1087.57 246.037 1087.57 Q240.597 1087.57 234.926 1086.65 Q229.313 1085.72 223.294 1083.87 L223.294 1072.12 Q228.503 1074.96 234.058 1076.35 Q239.614 1077.73 245.806 1077.73 Q255.817 1077.73 261.662 1072.47 Q267.507 1067.2 267.507 1058.17 Q267.507 1049.15 261.662 1043.88 Q255.817 1038.61 245.806 1038.61 Q241.118 1038.61 236.431 1039.66 Q231.801 1040.7 226.94 1042.9 L226.94 999.494 Z" fill="#000000" fill-rule="nonzero" fill-opacity="1" /><path clip-path="url(#clip320)" d="M37.8787 187.173 L56.9758 187.173 L56.9758 121.259 L36.2004 125.426 L36.2004 114.777 L56.86 110.611 L68.5498 110.611 L68.5498 187.173 L87.6469 187.173 L87.6469 197.011 L37.8787 197.011 L37.8787 187.173 Z" fill="#000000" fill-rule="nonzero" fill-opacity="1" /><path clip-path="url(#clip320)" d="M111.258 182.312 L123.468 182.312 L123.468 197.011 L111.258 197.011 L111.258 182.312 Z" fill="#000000" fill-rule="nonzero" fill-opacity="1" /><path clip-path="url(#clip320)" d="M173.931 118.307 Q164.903 118.307 160.332 127.219 Q155.818 136.074 155.818 153.898 Q155.818 171.664 160.332 180.576 Q164.903 189.43 173.931 189.43 Q183.017 189.43 187.531 180.576 Q192.102 171.664 192.102 153.898 Q192.102 136.074 187.531 127.219 Q183.017 118.307 173.931 118.307 M173.931 109.048 Q188.457 109.048 196.095 120.564 Q203.792 132.023 203.792 153.898 Q203.792 175.715 196.095 187.231 Q188.457 198.689 173.931 198.689 Q159.406 198.689 151.709 187.231 Q144.07 175.715 144.07 153.898 Q144.07 132.023 151.709 120.564 Q159.406 109.048 173.931 109.048 Z" fill="#000000" fill-rule="nonzero" fill-opacity="1" /><path clip-path="url(#clip320)" d="M249.336 118.307 Q240.308 118.307 235.736 127.219 Q231.223 136.074 231.223 153.898 Q231.223 171.664 235.736 180.576 Q240.308 189.43 249.336 189.43 Q258.421 189.43 262.935 180.576 Q267.507 171.664 267.507 153.898 Q267.507 136.074 262.935 127.219 Q258.421 118.307 249.336 118.307 M249.336 109.048 Q263.861 109.048 271.5 120.564 Q279.197 132.023 279.197 153.898 Q279.197 175.715 271.5 187.231 Q263.861 198.689 249.336 198.689 Q234.81 198.689 227.114 187.231 Q219.475 175.715 219.475 153.898 Q219.475 132.023 227.114 120.564 Q234.81 109.048 249.336 109.048 Z" fill="#000000" fill-rule="nonzero" fill-opacity="1" /><polyline clip-path="url(#clip322)" style="stroke:#00008b; stroke-linecap:round; stroke-linejoin:round; stroke-width:20; stroke-opacity:1; fill:none" points="375.197,157.366 398.338,158.268 421.48,159.312 444.621,160.521 467.763,161.941 490.904,163.604 514.046,165.528 537.187,167.761 560.329,170.405 628.097,180.824 695.866,197.1 729.75,208.379 763.635,222.4 797.519,239.785 831.403,261.279 865.288,287.758 899.172,320.237 916.114,339.081 933.056,359.867 949.999,382.758 966.941,407.927 983.883,435.699 1000.83,466.112 1017.77,499.334 1034.71,535.53 1051.65,574.855 1068.59,617.448 1085.54,663.427 1102.48,712.886 1119.42,765.886 1136.36,822.453 1153.3,882.569 1170.25,946.169 1187.19,1013.14 1204.13,1083.3 1221.07,1156.45 1238.02,1232.29 1254.96,1310.5 1271.9,1390.7 1288.84,1472.54 1305.78,1555.47 1339.67,1722.69 1373.55,1888.6 1390.5,1969.97 1407.44,2049.73 1424.38,2127.55 1441.32,2203.11 1458.26,2276.17 1475.21,2346.5 1483.68,2380.71 1492.15,2413.96 1500.62,2446.59 1509.09,2475.84 1517.56,2501.54 1526.03,2517.7 1534.5,2517.7 1542.97,2517.7 1559.92,2517.7 1576.86,2517.7 1610.74,2517.71 1644.63,2517.71 1676.15,2517.71 1707.68,2517.72 1739.21,2517.72 1770.73,2517.72 1833.78,2517.73 1896.84,2517.73 2022.94,2517.74 2149.04,2517.75 2487.1,2517.76 2825.15,2517.78 3383.82,2520.31 3903.33,2527.21 4555.49,2535.77 5140.49,2543.25 5810.09,2551.46 6310.62,2557.3 6950.8,2564.34 7535.1,2570.3 8200.11,2576.52 8727.28,2581.01 9382.21,2586.07 9883.79,2589.56 10590.9,2593.94 11119.4,2596.83 11720.3,2599.76 12315.5,2602.3 12970.3,2604.73 13470.4,2606.35 14101.5,2608.15 14685.2,2609.58 15287.3,2610.86 15897.5,2611.98 16534.6,2612.98 17036.6,2613.67 18179.6,2614.93 18307.9,2615.05 "/>
<polyline clip-path="url(#clip322)" style="stroke:#006400; stroke-linecap:round; stroke-linejoin:round; stroke-width:20; stroke-opacity:1; fill:none" points="375.197,3705.79 398.338,3705.19 421.48,3704.49 444.621,3703.69 467.763,3702.74 490.904,3701.63 514.046,3700.35 537.187,3698.87 560.329,3697.11 594.213,3694.03 628.097,3690.18 661.982,3685.39 695.866,3679.39 729.75,3671.92 763.635,3662.66 780.577,3657.23 797.519,3651.2 814.461,3644.5 831.403,3637.07 848.346,3628.84 865.288,3619.73 882.23,3609.66 899.172,3598.55 916.114,3586.32 933.056,3572.86 949.999,3558.1 966.941,3541.93 983.883,3524.17 1000.83,3504.82 1017.77,3483.81 1034.71,3461.06 1051.65,3436.51 1068.59,3410.14 1085.54,3381.93 1102.48,3351.88 1119.42,3320.04 1136.36,3286.49 1153.3,3251.32 1170.25,3214.7 1187.19,3176.81 1204.13,3137.9 1221.07,3098.23 1238.02,3058.11 1254.96,3017.9 1271.9,2977.96 1288.84,2938.75 1305.78,2900.65 1322.73,2864.04 1339.67,2829.31 1356.61,2796.81 1373.55,2766.86 1382.02,2752.75 1390.5,2739.72 1398.97,2726.99 1407.44,2715.62 1415.91,2704.37 1424.38,2694.74 1432.85,2685.11 1441.32,2677.2 1449.79,2669.37 1458.26,2663.07 1466.74,2657.06 1475.21,2652.35 1483.68,2648.16 1492.15,2645.03 1500.62,2642.61 1509.09,2643.53 1517.56,2647.98 1526.03,2661.58 1534.5,2690.7 1542.97,2719.39 1551.45,2746.81 1559.92,2774.02 1568.39,2799.84 1576.86,2825.64 1585.33,2849.96 1593.8,2874.29 1602.27,2897.33 1610.74,2920.24 1627.69,2963.67 1644.63,3004.71 1660.39,3040.85 1676.15,3075.16 1691.92,3107.74 1707.68,3138.68 1723.44,3168.06 1739.21,3195.95 1754.97,3222.33 1770.73,3247.27 1786.49,3270.96 1802.26,3293.45 1818.02,3314.81 1833.78,3335.1 1849.55,3354.36 1865.31,3372.64 1881.07,3389.97 1896.84,3406.33 1912.6,3421.86 1928.36,3436.6 1944.12,3450.61 1959.89,3463.91 1991.41,3488.53 2022.94,3510.63 2054.47,3530.48 2085.99,3548.38 2117.52,3564.52 2149.04,3579.03 2191.3,3596.19 2233.56,3611.1 2275.81,3624.08 2318.07,3635.29 2360.33,3645.06 2402.58,3653.55 2444.84,3660.88 2487.1,3667.28 2571.61,3677.63 2656.12,3685.44 2740.64,3691.33 2825.15,3695.76 2964.82,3700.83 3104.49,3704 3244.15,3705.39 3383.82,3705.38 3643.58,3705.37 3903.33,3705.38 4555.49,3705.43 5140.49,3705.53 5810.09,3705.69 6310.62,3705.84 6950.8,3706.07 7535.1,3706.29 8200.11,3706.56 8727.28,3706.78 9382.21,3707.05 9883.79,3707.25 10590.9,3707.51 11119.4,3707.7 11720.3,3707.89 12315.5,3708.07 12970.3,3708.24 13470.4,3708.36 14101.5,3708.5 14685.2,3708.61 15287.3,3708.71 15897.5,3708.8 16534.6,3708.88 17036.6,3708.93 18179.6,3709.04 18307.9,3709.05 "/>
<polyline clip-path="url(#clip322)" style="stroke:#000000; stroke-linecap:round; stroke-linejoin:round; stroke-width:12; stroke-opacity:1; fill:none" stroke-dasharray="48, 30" points="375.197,2524.17 18307.9,2524.17 "/>
<polyline clip-path="url(#clip322)" style="stroke:#8b0000; stroke-linecap:round; stroke-linejoin:round; stroke-width:20; stroke-opacity:1; fill:none" points="375.197,3709.34 421.48,3709.34 467.763,3709.34 514.046,3709.34 560.329,3709.34 831.403,3709.34 1102.48,3709.34 1170.25,3709.34 1238.02,3709.34 1305.78,3709.34 1373.55,3709.34 1407.44,3709.34 1441.32,3709.34 1449.79,3709.34 1458.26,3709.34 1466.74,3709.34 1475.21,3709.34 1483.68,3709.33 1492.15,3535.81 1500.62,3249.02 1509.09,2422.38 1517.56,1029.65 1526.03,153.907 1534.5,153.91 1542.97,153.912 1559.92,153.917 1576.86,153.922 1610.74,153.933 1644.63,153.945 1676.15,153.957 1707.68,153.97 1739.21,153.984 1770.73,153.999 1833.78,154.032 1896.84,154.071 2022.94,154.166 2149.04,154.291 2487.1,154.863 2825.15,156.328 2894.98,156.956 2964.82,157.878 2999.73,158.528 3034.65,159.388 3069.57,160.593 3104.49,162.422 3121.94,163.758 3139.4,165.594 3148.13,166.851 3156.86,168.299 3161.23,169.322 3165.59,170.345 3169.95,171.368 3174.32,424.531 3178.68,1102.96 3183.05,1781.39 3187.41,2459.82 3191.78,3007.3 3196.14,3188.88 3200.51,3370.46 3204.87,3552.04 3209.24,3705.59 3213.6,3706.22 3217.97,3706.86 3222.33,3707.49 3226.69,3708.1 3235.42,3708.41 3244.15,3708.72 3279.07,3709.1 3313.99,3709.21 3348.9,3709.26 3383.82,3709.29 3513.7,3709.32 3643.58,3709.33 3773.45,3709.34 3903.33,3709.34 4555.49,3709.34 5140.49,3709.34 5810.09,3709.34 6310.62,3709.34 6950.8,3709.34 7535.1,3709.34 8200.11,3709.34 8727.28,3709.34 9382.21,3709.34 9883.79,3709.34 10590.9,3709.34 11119.4,3709.34 11720.3,3709.34 12315.5,3709.34 12970.3,3709.34 13470.4,3709.34 14101.5,3709.34 14685.2,3709.34 15287.3,3709.34 15897.5,3709.34 16534.6,3709.34 17036.6,3709.34 18179.6,3709.34 18307.9,3709.34 "/>
<path clip-path="url(#clip320)" d="M5391.54 950.47 L6153.5 950.47 L6153.5 172.87 L5391.54 172.87  Z" fill="#ffffff" fill-rule="evenodd" fill-opacity="1"/>
<polyline clip-path="url(#clip320)" style="stroke:#000000; stroke-linecap:round; stroke-linejoin:round; stroke-width:4; stroke-opacity:1; fill:none" points="5391.54,950.47 6153.5,950.47 6153.5,172.87 5391.54,172.87 5391.54,950.47 "/>
<polyline clip-path="url(#clip320)" style="stroke:#00008b; stroke-linecap:round; stroke-linejoin:round; stroke-width:24; stroke-opacity:1; fill:none" points="5457.96,328.39 5856.47,328.39 "/>
<path clip-path="url(#clip320)" d="M6008.26 277.066 L6000.46 308.546 Q6000.04 310.443 5999.69 310.935 Q5999.33 311.427 5998.35 311.427 Q5997.58 311.427 5997.09 311.075 Q5996.66 310.724 5996.66 310.373 L5996.59 310.021 Q5996.59 309.81 5996.73 308.756 Q5996.87 307.632 5997.02 305.805 Q5997.16 303.978 5997.16 301.94 Q5997.16 290.417 5991.53 285.076 Q5985.98 279.666 5976.43 279.666 Q5969.82 279.666 5963.92 283.179 Q5958.02 286.692 5954.64 292.244 Q5951.27 297.724 5951.27 303.486 Q5951.27 308.756 5953.94 312.129 Q5956.61 315.502 5960.05 316.626 L5969.68 319.226 Q5979.8 321.826 5982.68 322.95 Q5985.56 324.004 5987.95 326.393 Q5995.05 332.999 5995.05 343.258 Q5995.05 352.111 5990.06 360.684 Q5985.07 369.186 5976.5 374.737 Q5967.92 380.218 5958.44 380.218 Q5941.79 380.218 5934.13 369.889 L5927.1 378.04 Q5925.76 379.586 5925.34 379.867 Q5924.99 380.218 5924.5 380.218 Q5923.87 380.218 5923.38 379.797 Q5922.88 379.445 5922.88 378.813 Q5922.88 378.321 5927.03 361.808 Q5931.17 345.295 5931.53 344.944 Q5932.09 344.382 5933 344.382 Q5934.69 344.382 5934.69 345.998 Q5934.55 346.42 5934.41 346.982 Q5933.56 352.041 5933.56 354.781 Q5933.56 359.911 5935.32 363.846 Q5937.08 367.711 5939.68 369.959 Q5942.35 372.138 5945.93 373.543 Q5949.51 374.878 5952.54 375.37 Q5955.56 375.791 5958.72 375.791 Q5965.54 375.791 5971.58 371.856 Q5977.69 367.921 5981.13 361.808 Q5984.65 355.695 5984.65 349.301 Q5984.65 345.928 5983.73 343.328 Q5982.82 340.658 5981.56 339.182 Q5980.36 337.707 5978.32 336.582 Q5976.29 335.458 5974.88 335.036 Q5973.55 334.544 5971.44 334.053 L5956.05 329.977 Q5949.87 328.15 5945.44 322.88 Q5941.08 317.61 5941.08 309.529 Q5941.08 301.027 5946.07 293.157 Q5951.13 285.217 5959.35 280.439 Q5967.64 275.59 5976.57 275.59 Q5983.59 275.59 5989 278.331 Q5994.42 281.001 5997.16 285.99 L6004.11 277.768 Q6005.52 276.152 6005.8 275.871 Q6006.15 275.59 6006.64 275.59 Q6007.49 275.59 6007.84 276.082 Q6008.26 276.574 6008.26 277.066 Z" fill="#000000" fill-rule="nonzero" fill-opacity="1" /><polyline clip-path="url(#clip320)" style="stroke:#006400; stroke-linecap:round; stroke-linejoin:round; stroke-width:24; stroke-opacity:1; fill:none" points="5457.96,483.91 5856.47,483.91 "/>
<path clip-path="url(#clip320)" d="M5989.5 436.029 Q5989.5 437.364 5988.93 437.996 Q5988.44 438.559 5987.67 438.699 Q5986.9 438.769 5984.86 438.769 Q5981.42 438.769 5979.24 439.05 Q5977.06 439.261 5975.72 439.613 Q5974.39 439.894 5973.62 440.877 Q5972.91 441.791 5972.56 442.634 Q5972.28 443.477 5971.79 445.374 L5952.54 522.036 Q5951.9 524.285 5951.9 525.409 Q5951.9 526.603 5952.61 527.095 Q5953.31 527.587 5955.56 527.798 Q5959.14 528.149 5961.74 528.149 Q5965.18 528.149 5965.68 528.641 Q5966.03 529.133 5966.03 529.836 Q5966.03 531.101 5965.47 531.803 Q5964.9 532.436 5964.41 532.506 Q5963.99 532.576 5963.15 532.576 L5943.89 532.155 L5924.99 532.576 Q5922.88 532.576 5922.88 530.96 Q5922.88 529.906 5923.02 529.344 Q5923.23 528.712 5923.94 528.501 Q5924.71 528.22 5925.27 528.22 Q5925.83 528.149 5927.45 528.149 Q5930.33 528.149 5932.23 528.079 Q5934.2 527.939 5935.6 527.587 Q5937.08 527.166 5937.78 526.814 Q5938.55 526.393 5939.12 525.479 Q5939.75 524.495 5939.96 523.723 Q5940.24 522.95 5940.59 521.333 L5959.98 443.758 Q5960.27 442.493 5960.27 441.51 Q5960.27 439.613 5958.02 439.191 Q5955.84 438.769 5950.36 438.769 Q5948.67 438.769 5947.97 438.699 Q5947.34 438.629 5946.77 438.277 Q5946.28 437.926 5946.28 437.153 Q5946.28 436.169 5946.56 435.537 Q5946.84 434.834 5947.34 434.624 Q5947.9 434.413 5948.25 434.342 Q5948.6 434.272 5949.16 434.272 L5968.35 434.694 L5987.32 434.272 Q5989.5 434.272 5989.5 436.029 Z" fill="#000000" fill-rule="nonzero" fill-opacity="1" /><polyline clip-path="url(#clip320)" style="stroke:#000000; stroke-linecap:round; stroke-linejoin:round; stroke-width:18; stroke-opacity:1; fill:none" stroke-dasharray="72, 45" points="5457.96,639.43 5856.47,639.43 "/>
<path clip-path="url(#clip320)" d="M6008.26 566.788 L6000.46 598.268 Q6000.04 600.165 5999.69 600.657 Q5999.33 601.149 5998.35 601.149 Q5997.58 601.149 5997.09 600.797 Q5996.66 600.446 5996.66 600.095 L5996.59 599.743 Q5996.59 599.532 5996.73 598.478 Q5996.87 597.354 5997.02 595.527 Q5997.16 593.7 5997.16 591.663 Q5997.16 580.139 5991.53 574.798 Q5985.98 569.388 5976.43 569.388 Q5969.82 569.388 5963.92 572.901 Q5958.02 576.415 5954.64 581.966 Q5951.27 587.446 5951.27 593.208 Q5951.27 598.478 5953.94 601.851 Q5956.61 605.224 5960.05 606.348 L5969.68 608.948 Q5979.8 611.548 5982.68 612.672 Q5985.56 613.726 5987.95 616.116 Q5995.05 622.721 5995.05 632.98 Q5995.05 641.833 5990.06 650.406 Q5985.07 658.908 5976.5 664.459 Q5967.92 669.94 5958.44 669.94 Q5941.79 669.94 5934.13 659.611 L5927.1 667.762 Q5925.76 669.308 5925.34 669.589 Q5924.99 669.94 5924.5 669.94 Q5923.87 669.94 5923.38 669.519 Q5922.88 669.167 5922.88 668.535 Q5922.88 668.043 5927.03 651.53 Q5931.17 635.017 5931.53 634.666 Q5932.09 634.104 5933 634.104 Q5934.69 634.104 5934.69 635.72 Q5934.55 636.142 5934.41 636.704 Q5933.56 641.763 5933.56 644.504 Q5933.56 649.633 5935.32 653.568 Q5937.08 657.433 5939.68 659.681 Q5942.35 661.86 5945.93 663.265 Q5949.51 664.6 5952.54 665.092 Q5955.56 665.513 5958.72 665.513 Q5965.54 665.513 5971.58 661.579 Q5977.69 657.644 5981.13 651.53 Q5984.65 645.417 5984.65 639.023 Q5984.65 635.65 5983.73 633.05 Q5982.82 630.38 5981.56 628.904 Q5980.36 627.429 5978.32 626.304 Q5976.29 625.18 5974.88 624.758 Q5973.55 624.267 5971.44 623.775 L5956.05 619.699 Q5949.87 617.872 5945.44 612.602 Q5941.08 607.332 5941.08 599.251 Q5941.08 590.749 5946.07 582.879 Q5951.13 574.939 5959.35 570.161 Q5967.64 565.312 5976.57 565.312 Q5983.59 565.312 5989 568.053 Q5994.42 570.723 5997.16 575.712 L6004.11 567.491 Q6005.52 565.874 6005.8 565.593 Q6006.15 565.312 6006.64 565.312 Q6007.49 565.312 6007.84 565.804 Q6008.26 566.296 6008.26 566.788 Z" fill="#000000" fill-rule="nonzero" fill-opacity="1" /><path clip-path="url(#clip320)" d="M6072.22 697.019 Q6072.22 697.412 6071.78 698.937 Q6071.33 700.462 6070.25 702.823 Q6069.22 705.184 6067.79 707.348 Q6066.36 709.463 6064 711.037 Q6061.69 712.562 6059.04 712.562 Q6055.49 712.562 6053.13 710.201 Q6050.77 707.84 6050.77 704.299 Q6050.77 703.807 6050.82 703.315 Q6050.87 702.823 6050.92 702.528 Q6050.97 702.184 6051.12 701.643 Q6051.31 701.052 6051.36 700.806 Q6051.46 700.56 6051.71 699.823 Q6052 699.036 6052.1 698.741 Q6058.35 682.804 6058.35 676.164 Q6058.35 669.13 6052.89 669.13 Q6048.02 669.13 6043.2 672.671 Q6040.98 674.442 6038.87 677.59 Q6036.75 680.738 6036.36 681.919 Q6035.92 684.476 6035.28 686.444 Q6034.98 687.821 6033.56 693.182 L6031.34 702.282 L6029.43 709.906 Q6029.03 710.988 6027.95 711.775 Q6026.87 712.562 6025.69 712.562 Q6024.7 712.562 6023.72 711.873 Q6022.78 711.234 6022.78 709.709 Q6022.78 708.922 6023.18 707.496 L6037.79 649.455 L6038.08 647.488 Q6038.08 646.897 6037.84 646.602 Q6037.64 646.258 6036.46 646.012 Q6035.33 645.766 6033.07 645.766 Q6032.13 645.766 6031.69 645.717 Q6031.29 645.668 6030.95 645.422 Q6030.61 645.127 6030.61 644.536 Q6030.61 643.7 6030.95 643.257 Q6031.34 642.766 6031.64 642.667 Q6031.93 642.569 6032.52 642.52 Q6033.36 642.47 6036.16 642.225 Q6038.97 641.929 6041.38 641.733 Q6043.79 641.536 6044.82 641.536 Q6045.41 641.536 6045.71 641.831 Q6046.05 642.077 6046.1 642.372 L6046.15 642.618 L6038.28 674.639 Q6044.53 666.916 6053.18 666.916 Q6058.79 666.916 6061.79 669.818 Q6064.79 672.671 6064.79 677.688 Q6064.79 683.443 6058.64 699.823 Q6056.82 704.397 6056.82 707.004 Q6056.82 708.726 6057.36 709.513 Q6057.95 710.299 6059.23 710.299 Q6061.2 710.299 6062.92 709.168 Q6064.69 707.988 6065.92 706.069 Q6067.15 704.102 6067.99 702.134 Q6068.87 700.118 6069.51 697.855 Q6069.91 696.625 6070.1 696.33 Q6070.35 696.035 6071.04 696.035 Q6072.22 696.035 6072.22 697.019 Z" fill="#000000" fill-rule="nonzero" fill-opacity="1" /><polyline clip-path="url(#clip320)" style="stroke:#8b0000; stroke-linecap:round; stroke-linejoin:round; stroke-width:24; stroke-opacity:1; fill:none" points="5457.96,794.95 5856.47,794.95 "/>
<path clip-path="url(#clip320)" d="M5996.87 805.049 Q5995.05 814.113 5992.59 819.313 Q5988.58 827.253 5981.91 827.253 Q5977.27 827.253 5973.76 824.653 Q5970.31 821.983 5969.12 817.556 Q5967.78 819.313 5966.59 820.508 Q5965.47 821.702 5963.29 823.529 Q5961.11 825.286 5958.16 826.269 Q5955.28 827.253 5951.97 827.253 Q5949.44 827.253 5947.13 826.761 Q5944.81 826.34 5942.35 825.145 Q5939.96 823.88 5938.2 821.983 Q5936.52 820.086 5935.39 816.994 Q5934.27 813.902 5934.27 809.967 Q5934.27 805.049 5936.16 798.373 Q5938.13 791.698 5942.63 779.752 Q5945.09 773.428 5945.09 769.915 Q5945.09 768.299 5944.74 767.245 Q5944.39 766.191 5943.68 765.84 Q5943.05 765.418 5942.63 765.348 Q5942.21 765.207 5941.5 765.207 Q5937.15 765.207 5933.35 769.634 Q5929.56 774.061 5926.96 783.055 Q5926.4 784.812 5926.05 785.233 Q5925.69 785.655 5924.64 785.655 Q5922.88 785.585 5922.88 784.179 Q5922.88 783.617 5923.52 781.439 Q5924.15 779.19 5925.62 775.888 Q5927.17 772.515 5929.28 769.493 Q5931.39 766.402 5934.69 764.223 Q5938.06 762.045 5941.93 762.045 Q5947.2 762.045 5950.43 765.488 Q5953.73 768.861 5953.73 773.85 Q5953.73 776.942 5951.27 782.915 Q5943.47 803.643 5943.47 812.286 Q5943.47 824.021 5952.4 824.021 Q5955.35 824.021 5958.09 822.826 Q5960.9 821.632 5962.72 819.945 Q5964.55 818.259 5965.96 816.432 Q5967.43 814.605 5968.07 813.411 Q5968.77 812.216 5968.84 811.935 L5979.59 768.65 Q5980.01 766.964 5980.78 765.84 Q5981.63 764.645 5982.61 764.223 Q5983.59 763.802 5984.16 763.732 Q5984.72 763.591 5985.21 763.591 Q5986.97 763.591 5988.16 764.645 Q5989.43 765.699 5989.43 767.526 Q5989.43 767.877 5989 769.564 Q5988.65 771.18 5988.09 773.569 Q5987.53 775.888 5987.25 777.153 Q5985 786.006 5984.79 786.92 L5980.78 802.449 Q5980.57 803.362 5979.87 806.314 Q5979.24 809.265 5978.89 810.811 Q5978.54 812.286 5978.18 814.324 Q5977.9 816.291 5977.9 817.416 Q5977.9 820.929 5978.96 822.475 Q5980.01 824.021 5982.33 824.021 Q5984.51 824.021 5986.19 822.545 Q5987.95 820.999 5989.29 818.048 Q5990.62 815.027 5991.39 812.567 Q5992.17 810.108 5993.15 806.243 Q5993.5 804.557 5993.78 804.135 Q5994.13 803.643 5995.12 803.643 Q5996.87 803.643 5996.87 805.049 Z" fill="#000000" fill-rule="nonzero" fill-opacity="1" /></svg>
